<?xml version="1.0" encoding="UTF-8" standalone="no" ?>
<!DOCTYPE svg PUBLIC "-//W3C//DTD SVG 1.1//EN" "http://www.w3.org/Graphics/SVG/1.1/DTD/svg11.dtd">
<svg xmlns="http://www.w3.org/2000/svg" xmlns:xlink="http://www.w3.org/1999/xlink" version="1.1" width="1080" height="1080" viewBox="0 0 1080 1080" xml:space="preserve">
<desc>Created with Fabric.js 5.2.4</desc>
<defs>
</defs>
<rect x="0" y="0" width="100%" height="100%" fill="transparent"></rect>
<g transform="matrix(1 0 0 1 540 540)" id="fd28401e-c013-4db3-8597-d6e3a68fdac5"  >
</g>
<g transform="matrix(1 0 0 1 540 540)" id="5b88c146-3786-4b99-9df2-60a53b811888"  >
<rect style="stroke: none; stroke-width: 1; stroke-dasharray: none; stroke-linecap: butt; stroke-dashoffset: 0; stroke-linejoin: miter; stroke-miterlimit: 4; fill: rgb(140,140,140); fill-rule: nonzero; opacity: 1; visibility: hidden;" vector-effect="non-scaling-stroke"  x="-540" y="-540" rx="0" ry="0" width="1080" height="1080" />
</g>
<g transform="matrix(0 0 0 0 0 0)"  >
<g style=""   >
</g>
</g>
<g transform="matrix(1.32 0 0 1.32 539.76 545.52)"  >
<g style="" vector-effect="non-scaling-stroke"   >
		<g transform="matrix(0.82 0 0 0.82 1.48 1.49)"  >
<path style="stroke: none; stroke-width: 1; stroke-dasharray: none; stroke-linecap: butt; stroke-dashoffset: 0; stroke-linejoin: miter; stroke-miterlimit: 4; fill: rgb(255,255,255); fill-rule: nonzero; opacity: 1;" vector-effect="non-scaling-stroke"  transform=" translate(-489.62, -489.62)" d="M 3.595 338.069 L 3.595 515.715 L 34.566 515.715 L 140.168 824.129 L 551.565 824.129 C 561.643 858.434 580.1940000000001 889.869 606.1800000000001 915.8580000000001 C 647.0590000000001 956.7370000000001 701.4090000000001 979.249 759.221 979.249 C 817.032 979.249 871.383 956.7370000000001 912.262 915.8580000000001 C 953.1389999999999 874.979 975.6529999999999 820.629 975.6529999999999 762.8190000000001 C 975.6529999999999 705.0070000000001 953.1389999999999 650.657 912.262 609.778 C 889.0569999999999 586.575 861.5079999999999 569.296 831.453 558.686 L 846.1659999999999 515.715 L 877.137 515.715 L 877.137 338.069 L 768.399 338.069 L 515.467 104.35900000000001 C 518.119 96.453 519.58 88.004 519.58 79.215 C 519.581 35.536 484.044 0 440.366 0 C 396.688 0 361.15099999999995 35.536 361.15099999999995 79.215 C 361.15099999999995 88.003 362.61099999999993 96.452 365.26499999999993 104.35900000000001 L 112.33299999999994 338.069 L 3.595 338.069 z M 620.771 824.129 C 614.6909999999999 810.453 610.583 795.715 608.8019999999999 780.279 C 608.1419999999999 774.547 607.7879999999999 768.722 607.7879999999999 762.816 C 607.7879999999999 761.5840000000001 607.8059999999999 760.355 607.8349999999999 759.128 C 608.626 726.224 619.9699999999999 695.8900000000001 638.5989999999999 671.3760000000001 C 639.204 670.5770000000001 639.8159999999999 669.782 640.439 668.9970000000001 C 665.322 637.5590000000001 702.396 616.1940000000001 744.457 612.104 C 749.316 611.633 754.24 611.383 759.221 611.383 C 763.494 611.383 767.725 611.571 771.909 611.918 C 785.292 613.033 798.186 615.897 810.364 620.279 C 868.772 641.3 910.653 697.254 910.653 762.814 C 910.653 846.312 842.721 914.2439999999999 759.221 914.2439999999999 C 697.534 914.248 644.351 877.166 620.771 824.129 z M 579.935 603.998 L 472.866 603.998 L 472.866 516.557 L 588.5699999999999 516.557 L 579.935 603.998 z M 407.866 759.129 L 316.115 759.129 L 307.216 668.998 L 407.866 668.998 L 407.866 759.129 z M 300.796 603.998 L 292.161 516.557 L 407.865 516.557 L 407.865 603.998 L 300.796 603.998 z M 226.846 516.557 L 235.481 603.996 L 133.5 603.996 L 103.56 516.557 L 226.846 516.557 z M 186.616 759.129 L 155.75500000000002 668.998 L 241.89900000000003 668.998 L 250.79900000000004 759.129 L 186.616 759.129 z M 472.866 668.998 L 564.0699999999999 668.998 C 550.6679999999999 696.82 543.361 727.418 542.834 759.129 L 472.86699999999996 759.129 L 472.86699999999996 668.998 L 472.866 668.998 z M 759.222 546.385 C 719.38 546.385 681.185 557.08 647.908 577.108 L 653.8870000000001 516.5569999999999 L 777.1740000000001 516.5569999999999 L 766.9080000000001 546.536 C 764.353 546.445 761.79 546.385 759.222 546.385 z M 812.138 450.715 L 68.595 450.715 L 68.595 403.06899999999996 L 812.138 403.06899999999996 L 812.138 450.715 z M 454.582 79.215 C 454.582 83.336 452.81 87.041 449.99899999999997 89.64 C 447.46299999999997 91.985 444.085 93.431 440.36699999999996 93.431 C 436.64899999999994 93.431 433.27099999999996 91.985 430.73499999999996 89.64 C 427.92499999999995 87.041 426.15199999999993 83.336 426.15199999999993 79.215 C 426.15199999999993 75.095 427.92499999999995 71.39 430.73499999999996 68.791 C 433.27099999999996 66.446 436.64899999999994 65 440.36699999999996 65 C 444.085 65 447.46299999999997 66.446 449.99899999999997 68.791 C 452.809 71.39 454.582 75.095 454.582 79.215 z M 409.368 152.108 C 418.894 156.175 429.371 158.431 440.367 158.431 C 451.36300000000006 158.431 461.839 156.175 471.36600000000004 152.108 L 672.62 338.069 L 208.112 338.069 L 409.368 152.108 z" stroke-linecap="round" />
</g>
		<g transform="matrix(0.82 0 0 0.82 220.54 223.47)"  >
<polygon style="stroke: none; stroke-width: 1; stroke-dasharray: none; stroke-linecap: butt; stroke-dashoffset: 0; stroke-linejoin: miter; stroke-miterlimit: 4; fill: rgb(255,255,255); fill-rule: nonzero; opacity: 1;" vector-effect="non-scaling-stroke"  points="32.5,-88.09 32.5,-95.33 12.69,-95.33 -32.5,-95.33 -32.5,-93.82 -32.5,-32.5 -55.24,-32.5 -95.33,-32.5 -95.33,-3.69 -95.33,32.5 -32.5,32.5 -32.5,61.31 -32.5,95.33 32.5,95.33 32.5,32.5 95.33,32.5 95.33,-32.5 32.5,-32.5 " />
</g>
</g>
</g>
<g transform="matrix(NaN NaN NaN NaN 0 0)"  >
<g style=""   >
</g>
</g>
</svg>