<?xml version="1.0" encoding="utf-8"?>
<svg xmlns="http://www.w3.org/2000/svg" viewBox="95.7787 86.0136 274.793 259.6555" width="274.793px" height="259.6555px"><g transform="matrix(0.3836260437965393, 0, 0, 0.3836260437965393, 248.10140991210938, 239.46336364746094)" id="object-0"><g style="" vector-effect="non-scaling-stroke"><g transform="matrix(0.82 0 0 0.82 1.48 1.49)"><path style="stroke: none; stroke-width: 1px; stroke-dasharray: none; stroke-linecap: butt; stroke-dashoffset: 0px; stroke-linejoin: miter; stroke-miterlimit: 4; fill-rule: nonzero; opacity: 1;" vector-effect="non-scaling-stroke" d="M 3.595 338.069 L 3.595 515.715 L 34.566 515.715 L 140.168 824.129 C 140.168 824.129 832.113 823 711.871 823 C 721.949 857.305 846.166 515.715 846.166 515.715 L 877.137 515.715 L 877.137 338.069 L 768.399 338.069 L 515.467 104.359 C 518.119 96.453 519.58 88.004 519.58 79.215 C 519.581 35.536 484.044 0 440.366 0 C 396.688 0 361.151 35.536 361.151 79.215 C 361.151 88.003 362.611 96.452 365.265 104.359 L 112.333 338.069 L 3.595 338.069 Z M 702.537 763.9 C 597.418 757.381 700.626 764.945 593.883 757.936 C 592.883 757.87 592.31 756.913 613.448 670.259 C 613.471 670.163 733.896 671.94 738.877 671.94 C 743.15 671.94 703.681 763.971 702.537 763.9 Z M 576.623 604.471 L 472.866 603.998 L 472.866 516.557 L 588.57 516.557 L 576.623 604.471 Z M 407.866 759.129 L 316.115 759.129 L 307.216 668.998 L 407.866 668.998 L 407.866 759.129 Z M 300.796 603.998 L 292.161 516.557 L 407.865 516.557 L 407.865 603.998 L 300.796 603.998 Z M 226.846 516.557 L 235.481 603.996 L 133.5 603.996 L 103.56 516.557 L 226.846 516.557 Z M 186.616 759.129 L 155.755 668.998 L 241.899 668.998 L 250.799 759.129 L 186.616 759.129 Z M 472.866 668.998 L 564.07 668.998 C 544.518 758.796 564.177 669.227 542.834 759.129 L 472.867 759.129 L 472.867 668.998 L 472.866 668.998 Z M 756.027 610.405 C 753.472 610.314 756.408 609.594 628.511 608.806 L 653.887 516.557 L 777.174 516.557 L 756.027 610.405 Z M 812.138 450.715 L 68.595 450.715 L 68.595 403.069 L 812.138 403.069 L 812.138 450.715 Z M 454.582 79.215 C 454.582 83.336 452.81 87.041 449.999 89.64 C 447.463 91.985 444.085 93.431 440.367 93.431 C 436.649 93.431 433.271 91.985 430.735 89.64 C 427.925 87.041 426.152 83.336 426.152 79.215 C 426.152 75.095 427.925 71.39 430.735 68.791 C 433.271 66.446 436.649 65 440.367 65 C 444.085 65 447.463 66.446 449.999 68.791 C 452.809 71.39 454.582 75.095 454.582 79.215 Z M 409.368 152.108 C 418.894 156.175 429.371 158.431 440.367 158.431 C 451.363 158.431 461.839 156.175 471.366 152.108 L 672.62 338.069 L 208.112 338.069 L 409.368 152.108 Z" stroke-linecap="round" transform=" translate(-489.62, -489.62)"/></g><g transform="matrix(0.82 0 0 0.82 220.54 223.47)"/></g></g></svg>